<svg id="dvonrohr-text" data-name="Ebene 1" xmlns="http://www.w3.org/2000/svg" viewBox="0 0 176.94 33.72">
  <path class="cls-1" d="M20.52,33.21a6.6,6.6,0,0,1-1.39-1.28,8.19,8.19,0,0,1-1-1.55,10.66,10.66,0,0,1-.67-1.74q-0.26-.91-0.44-1.86H16.55a41.69,41.69,0,0,1-6.19,4.36,15.3,15.3,0,0,1-4.43,1.76,4.05,4.05,0,0,1-2.79-.28,2.77,2.77,0,0,1-1.3-1.78,5.72,5.72,0,0,1,.09-2.76,11.13,11.13,0,0,1,1.37-3.18,15,15,0,0,1,2.51-3,13.53,13.53,0,0,1,8-3.59,13.88,13.88,0,0,1,5.24.56l0.49-.49L25.48,6.42a1.49,1.49,0,0,1,1.39,1,3.94,3.94,0,0,1,0,1.92,11,11,0,0,1-.7,2.06l-0.67,1.46q-0.11.25-.49,1l-0.9,1.78L23,17.83Q22.42,19,21.91,20T21,21.8q-0.39.76-.49,1A6.12,6.12,0,0,0,20,24.47a12.41,12.41,0,0,0-.16,1.76q0,0.9.05,1.79T20,29.76a2.49,2.49,0,0,0,.69,1.3,8.09,8.09,0,0,0,1.11.9L23,32.77a3.7,3.7,0,0,1,1,1,0.73,0.73,0,0,1-.7.58,3,3,0,0,1-1.11-.19,6,6,0,0,1-1.07-.51A4.13,4.13,0,0,1,20.52,33.21Zm-16.38-2a0.69,0.69,0,0,0,.84.51,5.15,5.15,0,0,0,1.74-.54A18.45,18.45,0,0,0,9,29.85Q10.33,29,11.59,28t2.46-2.09a22.37,22.37,0,0,0,2-2.09A12.33,12.33,0,0,0,17.37,22a1.22,1.22,0,0,0,.19-1.2,6.31,6.31,0,0,0-3-.74,10,10,0,0,0-3.32.58A12.45,12.45,0,0,0,8,22.34a11.47,11.47,0,0,0-2.55,2.5,8.78,8.78,0,0,0-1.46,3A6.08,6.08,0,0,0,4.14,31.24Z" transform="translate(-1.71 -0.61)"/><path class="cls-1" d="M28,33.21a3,3,0,0,1-1.32-1.67A8.67,8.67,0,0,1,26.27,29a17.06,17.06,0,0,1,.18-3q0.23-1.6.53-3.08t0.62-2.67Q27.9,19,28,18.34a0.44,0.44,0,0,1,.47,0,2.38,2.38,0,0,1,.49.35,4.83,4.83,0,0,1,.54.63,23.54,23.54,0,0,1,0,3q-0.09,1.46-.25,2.92T29,28.2a20.17,20.17,0,0,0,0,3,0.73,0.73,0,0,0,1.05.21A8.14,8.14,0,0,0,32,30.22q1.13-.91,2.5-2.27t2.85-2.9q1.48-1.55,3-3.13t2.81-3q1.34-1.37,2.43-2.39a11.15,11.15,0,0,1,1.78-1.42q0.69-.4.88-0.05a2.88,2.88,0,0,1-.26,1.72,16.8,16.8,0,0,0-1.83,1.93q-1,1.23-2.2,2.72l-2.5,3.15q-1.32,1.65-2.69,3.18t-2.78,2.83a15.67,15.67,0,0,1-2.78,2.09,7.6,7.6,0,0,1-2.65,1A3.56,3.56,0,0,1,28,33.21Z" transform="translate(-1.71 -0.61)"/><path class="cls-1" d="M52.37,33.74a3.57,3.57,0,0,1-2.29-2.23,6.1,6.1,0,0,1,0-3.34,14,14,0,0,1,1.65-3.78,25.2,25.2,0,0,1,2.62-3.57,19.65,19.65,0,0,1,2.92-2.74,5.82,5.82,0,0,1,2.53-1.25,8,8,0,0,1,4.29.37,4,4,0,0,1,2.13,2.09,5.88,5.88,0,0,1,.32,3.18,12.69,12.69,0,0,1-1.16,3.67,17.19,17.19,0,0,1-2.32,3.57,14.44,14.44,0,0,1-3.16,2.85,10.6,10.6,0,0,1-3.67,1.55A6.59,6.59,0,0,1,52.37,33.74Zm-0.49-2.5A1.9,1.9,0,0,0,53,32.68a2.9,2.9,0,0,0,1.92,0,9.93,9.93,0,0,0,2.41-1.16,20,20,0,0,0,2.57-2,25.15,25.15,0,0,0,2.41-2.46,19.75,19.75,0,0,0,1.92-2.62A9.78,9.78,0,0,0,65.28,22a2.91,2.91,0,0,0-.05-2,2.26,2.26,0,0,0-1.53-1.18,8.13,8.13,0,0,0-3.34,0l-1.58,1.39q-0.95.83-2,1.79a29.09,29.09,0,0,0-2.06,2.09A17.26,17.26,0,0,0,53,26.41a8.94,8.94,0,0,0-1.07,2.41A4.6,4.6,0,0,0,51.88,31.24Z" transform="translate(-1.71 -0.61)"/><path class="cls-1" d="M84.89,33.74a7.9,7.9,0,0,1,.25-2.87,18.44,18.44,0,0,1,1-2.81q0.63-1.39,1.35-2.78t1.27-2.72a12.11,12.11,0,0,0,.76-2.64,5.6,5.6,0,0,0-.18-2.57,3.57,3.57,0,0,0-2.55.19,14.27,14.27,0,0,0-3,1.74A37.32,37.32,0,0,0,80.53,22q-1.69,1.56-3.29,3.16l-3.06,3q-1.46,1.44-2.64,2.39a6.52,6.52,0,0,1-2,1.2,0.73,0.73,0,0,1-1-.56s0.1-.25.3-0.67,0.47-1,.81-1.67,0.73-1.47,1.18-2.34,0.91-1.76,1.39-2.67l1.42-2.71q0.7-1.34,1.28-2.39t1-1.72a2.77,2.77,0,0,1,.56-0.74,1.76,1.76,0,0,1,.91,1.32,4.14,4.14,0,0,1-.23,1.51q-0.26.79-.58,1.58a2.41,2.41,0,0,0-.11,1.56q0.74-.49,2-1.35t2.72-1.78q1.49-.91,3.08-1.78a23.13,23.13,0,0,1,3-1.39,8.16,8.16,0,0,1,2.53-.56,1.83,1.83,0,0,1,1.63.67,3.24,3.24,0,0,1,.33,2.3,17.27,17.27,0,0,1-1.39,4.38Q90.31,23,90,23.63t-0.63,1.42l-0.76,1.72L87.86,28.5q-0.37.81-.63,1.42t-0.33.83a2.85,2.85,0,0,0-.12.65q-0.05.47-.16,1a7.71,7.71,0,0,1-.28,1.05,2,2,0,0,1-.42.76,0.28,0.28,0,0,1-.3.09,1.33,1.33,0,0,1-.32-0.16A1.26,1.26,0,0,1,85,33.93,1,1,0,0,1,84.89,33.74Z" transform="translate(-1.71 -0.61)"/><path class="cls-1" d="M94.35,33.74a3,3,0,0,1,0-1q0.11-1,.33-2.5t0.56-3.29q0.33-1.79.74-3.43t0.86-2.92a4.9,4.9,0,0,1,.91-1.74,0.39,0.39,0,0,1,.62,0,5.62,5.62,0,0,1,.6.72,5.66,5.66,0,0,0,.62.74,0.47,0.47,0,0,0,.67.07A31.29,31.29,0,0,1,103,17.05a16.69,16.69,0,0,1,3.27-2.69,4.4,4.4,0,0,1,1-.42q0.79-.28,1.81-0.56t2.09-.49a7.84,7.84,0,0,1,1.83-.18,1.32,1.32,0,0,1,1,.4,1.17,1.17,0,0,1-.28,1.25,8.84,8.84,0,0,0-3.74.9,14.76,14.76,0,0,0-3.36,2.27,23.58,23.58,0,0,0-3,3.2q-1.39,1.79-2.55,3.64T99,28q-1,1.78-1.69,3.16t-1.23,2.23a1.59,1.59,0,0,1-.76.84A1.59,1.59,0,0,1,94.88,34Z" transform="translate(-1.71 -0.61)"/><path class="cls-1" d="M117.9,33.74a3.57,3.57,0,0,1-2.29-2.23,6.1,6.1,0,0,1,0-3.34,14,14,0,0,1,1.65-3.78,25.2,25.2,0,0,1,2.62-3.57,19.65,19.65,0,0,1,2.92-2.74,5.82,5.82,0,0,1,2.53-1.25,8,8,0,0,1,4.29.37,4,4,0,0,1,2.13,2.09,5.88,5.88,0,0,1,.32,3.18,12.69,12.69,0,0,1-1.16,3.67,17.19,17.19,0,0,1-2.32,3.57,14.44,14.44,0,0,1-3.16,2.85,10.6,10.6,0,0,1-3.67,1.55A6.59,6.59,0,0,1,117.9,33.74Zm-0.49-2.5a1.9,1.9,0,0,0,1.09,1.44,2.9,2.9,0,0,0,1.92,0,9.93,9.93,0,0,0,2.41-1.16,20,20,0,0,0,2.57-2,25.15,25.15,0,0,0,2.41-2.46,19.75,19.75,0,0,0,1.92-2.62A9.78,9.78,0,0,0,130.81,22a2.91,2.91,0,0,0-.05-2,2.26,2.26,0,0,0-1.53-1.18,8.13,8.13,0,0,0-3.34,0l-1.58,1.39q-0.95.83-2,1.79a29.09,29.09,0,0,0-2.06,2.09,17.26,17.26,0,0,0-1.74,2.3,8.94,8.94,0,0,0-1.07,2.41A4.6,4.6,0,0,0,117.41,31.24Z" transform="translate(-1.71 -0.61)"/><path class="cls-1" d="M133.79,33.21a0.76,0.76,0,0,1,0-.46q0.14-.35.56-1.21l0.9-1.81q0.47-.95.91-1.79t0.62-1.16,0.46-.76q0.39-.61.93-1.53l1.18-2,1.27-2.14,1.2-2,0.91-1.53q0.88-1.44,2-3.43t2.39-4q1.23-2,2.43-3.9a32.78,32.78,0,0,1,2.21-3.13A6.79,6.79,0,0,1,153.52.72q0.7-.39.95,0.53a4.66,4.66,0,0,1,0,.72,4.65,4.65,0,0,1,0,.72q-0.28.46-.81,1.23t-1.09,1.63L151.5,7.19Q151,8,150.7,8.42l-1.27,2-2,3.09q-1.11,1.72-2.25,3.59t-2.07,3.48q-0.93,1.62-1.48,2.78a2.45,2.45,0,0,0-.4,1.48,8.92,8.92,0,0,0,2.27-1.11q1.21-.79,2.44-1.71t2.46-1.79a14.77,14.77,0,0,1,2.29-1.37,3.7,3.7,0,0,1,1.86.79,3.38,3.38,0,0,1,1.13,1.67q0,0.42-.05,1.49t0,2.25q0,1.18,0,2.23t0.05,1.48a3.2,3.2,0,0,0,.44,1.2q0.4,0.74.86,1.44l0.83,1.25a1.84,1.84,0,0,1,.33.58,2.3,2.3,0,0,1-1.65,0,3.8,3.8,0,0,1-1.37-.91,5.21,5.21,0,0,1-1-1.44,4.79,4.79,0,0,1-.46-1.6q-0.07-.42-0.14-1.49t-0.16-2.25q-0.09-1.18-.14-2.23t-0.05-1.48l-1-.53a1.25,1.25,0,0,0-.9.25,13.55,13.55,0,0,0-1.49,1q-0.84.62-1.76,1.39t-1.71,1.48L143,26.6l-0.72.67q-0.39.35-1.3,1.27l-2,2q-1,1-1.93,2l-1.25,1.28a4,4,0,0,1-1.16.11A1,1,0,0,1,133.79,33.21Z" transform="translate(-1.71 -0.61)"/><path class="cls-1" d="M158.9,33.74a2.94,2.94,0,0,1,0-1q0.11-1,.33-2.5t0.56-3.29q0.33-1.79.74-3.43t0.86-2.92a4.91,4.91,0,0,1,.91-1.74,0.39,0.39,0,0,1,.62,0,5.58,5.58,0,0,1,.6.72,5.7,5.7,0,0,0,.62.74,0.47,0.47,0,0,0,.67.07,31.29,31.29,0,0,1,2.71-3.29,16.69,16.69,0,0,1,3.27-2.69,4.4,4.4,0,0,1,1-.42q0.79-.28,1.81-0.56t2.09-.49a7.84,7.84,0,0,1,1.83-.18,1.32,1.32,0,0,1,1,.4,1.17,1.17,0,0,1-.28,1.25,8.84,8.84,0,0,0-3.74.9,14.76,14.76,0,0,0-3.36,2.27,23.58,23.58,0,0,0-3,3.2q-1.39,1.79-2.55,3.64T163.52,28q-1,1.78-1.69,3.16t-1.23,2.23a1.59,1.59,0,0,1-.76.84,1.61,1.61,0,0,1-.42-0.19Z" transform="translate(-1.71 -0.61)"/></svg>
