<?xml version="1.0" encoding="UTF-8" standalone="no"?>
<svg
   xmlns:dc="http://purl.org/dc/elements/1.1/"
   xmlns:cc="http://creativecommons.org/ns#"
   xmlns:rdf="http://www.w3.org/1999/02/22-rdf-syntax-ns#"
   xmlns:svg="http://www.w3.org/2000/svg"
   xmlns="http://www.w3.org/2000/svg"
   xmlns:sodipodi="http://sodipodi.sourceforge.net/DTD/sodipodi-0.dtd"
   xmlns:inkscape="http://www.inkscape.org/namespaces/inkscape"
   inkscape:version="1.0 (4035a4f, 2020-05-01)"
   sodipodi:docname="logo.svg"
   id="svg2"
   version="1"
   xml:space="preserve"
   width="414"
   height="94"
   viewBox="0 0 414 94"><sodipodi:namedview
   inkscape:current-layer="g12"
   inkscape:window-maximized="0"
   inkscape:window-y="256"
   inkscape:window-x="332"
   inkscape:cy="62.908509"
   inkscape:cx="262.86917"
   inkscape:zoom="2.6400966"
   showgrid="false"
   id="namedview159"
   inkscape:window-height="804"
   inkscape:window-width="1377"
   inkscape:pageshadow="2"
   inkscape:pageopacity="0"
   guidetolerance="10"
   gridtolerance="10"
   objecttolerance="10"
   borderopacity="1"
   bordercolor="#666666"
   pagecolor="#ffffff" /><metadata
   id="metadata8"><rdf:RDF><cc:Work
       rdf:about=""><dc:format>image/svg+xml</dc:format><dc:type
         rdf:resource="http://purl.org/dc/dcmitype/StillImage" /><dc:title></dc:title></cc:Work></rdf:RDF></metadata>
    <defs
   id="defs6">
        <clipPath
   clipPathUnits="userSpaceOnUse"
   id="clipPath18"><path
     d="m681 32c0 0 1303 379 2118-6 0 0 2-20-19-19-66 3-545 401-2089-7 0 0-14-2-16 5-5 21-4 23 6 27z"
     id="path20" /></clipPath>
        <clipPath
   clipPathUnits="userSpaceOnUse"
   id="clipPath24"><path
     d="m-132-147 3600 0 0 1025-3600 0 0-1025z"
     id="path26" /></clipPath>
        <clipPath
   clipPathUnits="userSpaceOnUse"
   id="clipPath30"><path
     d="m-132 877 0-1025 3600 0 0 1025-3600 0z"
     id="path32" /></clipPath>
        <clipPath
   clipPathUnits="userSpaceOnUse"
   id="clipPath44"><path
     d="M0 0 0 748 3314 748 3314 0 0 0Z"
     id="path46" /></clipPath>
        <clipPath
   clipPathUnits="userSpaceOnUse"
   id="clipPath50"><path
     d="m3314 240c0-2 0-4-1-6-1-3-5-8-13-15-9-4-19-3-32 1-9 7-13 18-13 33 0 6 1 16 3 29-1 4-3 6-7 6-14-4-26-6-33-6-5 0-7 1-6 3 0 1-2 5-6 12-2 5-3 9-3 12 0 3 0 5 1 7 3 10 6 16 7 19 3 9 7 14 9 16 2 1 5 1 9 1 4-3 6-10 6-21 0-10 3-15 9-15 2 0 5 0 8 1 6 4 12 6 17 6 3 0 7-1 9-3 4-3 6-7 6-13 0-2 0-5-1-9 0-4-1-7-1-8-1-11-2-18-2-21 0-11 3-18 9-23 2-2 4-3 8-3 1 0 3 0 5 0 2 0 4 0 5 0 4 0 6-2 6-5l0 0zm-150 258c8 24 12 46 13 66 1 17-3 36-11 57-3 7-9 10-20 10-4 0-8 0-13-1-26-12-45-34-55-66-7-12-16-39-29-81-3-22-6-44-9-67-3-26-5-49-5-69 0-6 0-12 0-19-1-2-1-4 1-6 1-2 3-3 5-3 17 14 34 33 53 56 15 20 31 40 46 60 14 34 22 55 24 61l0 0zm25-265c-23-9-44-14-62-14-20 0-38 5-55 16-5 1-11-1-18-5-9-5-16-8-20-9-4-1-8-1-14-1-10 1-17 5-20 13-1 5-1 11-2 16-1 7-4 11-7 14-1 0-1 0-2 0-1 0-1 0-2 0-1 0 0 3 3 8 4 9 7 18 9 29 3 16 5 34 5 55 0 11 0 23-1 35 2 19 4 38 6 57 3 22 8 40 13 54 0 8 2 17 7 27 7 14 11 22 12 25 15 41 38 70 70 89 12 3 23 4 34 4 16 0 29-3 39-9 16-19 24-42 24-69 0-32-13-73-38-124-25-51-69-100-131-145-1-2-2-19-2-51 1-2 3-3 5-3 3 0 6 1 11 4 13 17 27 26 41 26 3 0 6 0 8-1 3-3 5-10 8-22 2-10 6-16 14-18 4 0 8 0 12 0 16 0 32 4 49 11l3-11zm-675 40c10 0 19 0 29 1-15 4-28 6-38 6-5 0-10 0-15-1l-2 0c4-3 12-5 24-6l0 0 1 0 0 0zm-85 48c0-26 4-56 13-91 1-5-3-12-12-19-6-5-10-7-14-7-2 0-4 1-4 4-9 34-13 65-13 92 0 15 1 30 4 44 1 3 4 8 10 13 6 5 11 8 14 9 2 0 3 0 4-1 1-1 1-2 1-4-2-13-3-26-3-40l0 0zm504 80c0-20-11-40-32-60-11-10-25-20-42-29-28-15-65-27-110-38-28-6-57-12-87-16 25-14 50-31 77-51 63-48 109-96 137-145 1-1 1-2 1-3 0-5-4-11-11-16-5-4-10-6-15-6-2 0-4 1-4 2-28 47-71 93-129 138-42 32-81 57-118 74-24-2-49-4-74-5-23-1-33-2-30-2-28 0-41 7-41 20 0 9 7 18 20 26 10 7 20 11 30 14 7 1 13 2 20 2 14 0 30-3 48-9 16-5 33-12 50-20 75 7 139 19 190 35 30 10 53 20 68 31 4 3 7 5 9 8 7 9 11 19 11 31 0 12-4 24-11 36-25 40-64 70-116 90-44 16-94 24-151 24-19 0-37-1-56-3-78-7-150-27-216-58-46-22-79-42-99-62-18-17-27-32-27-44 0-7 3-12 8-17 1-1 1-2 1-3 0-5-3-9-9-15-6-5-12-8-16-8-2 0-4 0-5 1-7 6-11 14-11 23 0 16 11 36 32 59 29 30 69 58 122 84 98 47 195 70 292 70 44 0 85-5 124-16 62-16 109-45 142-85 18-22 26-42 26-61l0 0zM2371 237c-26-10-49-15-69-15-22 0-42 6-60 17-6 1-13-1-21-6-9-6-15-9-20-9-5-1-10-1-13-1-14 0-22 5-26 14-1 6-1 12-2 18-1 7-4 13-8 16-3 0-6 1-8 2-6 3-10 7-11 12 22 4 42 6 61 5 6-3 9-10 9-23 1-12 3-17 7-17 3 0 6 2 11 5 15 19 31 29 46 29 3 0 6 0 9 0 3-3 6-12 8-25 2-11 7-17 16-20 5-1 9-1 14-1 18 0 36 4 54 12l4-12zm0 503c0-4-2-9-6-14-55-79-130-164-223-257-88-87-172-160-253-220-84-62-142-94-175-94-3 0-7 0-9 1-5 1-8 6-11 14-1 7-3 13-4 20-15 57-23 121-23 192 0 47 4 91 13 132 2 8 10 15 26 22 2 1 4 1 6 1 2 0 4-1 5-2 2-1 2-3 2-6-11-52-16-103-16-153 0-59 8-117 23-175 2-7 7-10 16-10 24 0 67 23 128 68 65 48 136 111 213 190 88 89 171 185 251 290 5 7 14 10 26 10 8 0 12-3 12-9l0 0zm-830-359c46 84 69 162 71 234-1 6-2 12-3 18-1 6-4 11-9 14-6 1-10 2-12 1-29-23-51-59-65-108-21-55-32-122-32-202 3-7 6-10 9-9 7 6 20 23 40 51l0 0zm89 271c9-10 13-27 12-50-3-47-18-100-44-159-25-56-56-104-94-144 5-30 23-54 52-70 8-5 19-7 33-7 9 0 19 1 31 3 3 1 5-2 5-7 0-4-2-7-5-8-15-3-27-5-38-5-8 0-16 1-24 3-2 3-6 4-12 5-6 1-9 2-11 3-11 4-21 10-31 20-10 10-17 20-23 31-14 42-21 75-21 98 0 4 0 7 0 9-2 4-3 8-3 12 0 3 1 7 3 14 2 6 3 11 3 15 0 2 0 4 0 6 14 113 52 192 115 239 6 3 13 5 20 5 12 0 23-4 34-12l0 0zM1355 261c7 11 10 22 9 35-1 5-3 7-7 7-3 0-7-4-11-12-1-17 0-28 3-33 1 0 3 1 6 3l0 0zm135-22c7 0 12-2 14-5-1-5-3-9-9-11-5-2-10-4-15-6-32-7-58-11-76-11-11 0-22 1-32 3-17 4-31 10-43 19-14 11-21 22-21 35 0 5 1 10 3 15 2 5 5 11 10 17 4 5 8 11 12 16 6 2 12 4 18 6 6 2 12 3 16 3 5 0 10-1 15-4 8-7 12-16 12-26 0-14-9-31-28-50 4-8 14-14 30-17 8-2 16-3 24-3 23 0 46 7 69 20l0 0zm-130-5c-5-3-11-5-16-8-6-3-12-4-16-4-21-3-40-4-56-4-46 0-82 10-109 31-3 5-6 10-9 15-3 6-4 12-4 17 0 3 1 7 2 10 1 6 5 15 14 28 4 0 10 2 17 7 7 5 13 7 16 7 3 0 6-1 9-3-10-15-14-27-14-35 0-13 5-25 15-36 10-11 22-18 35-20 12-4 24-6 37-6 22 0 47 5 75 16l3-14zm-172 3c-26-10-49-15-69-15-22 0-42 6-60 17-6 1-13-1-21-6-9-6-15-9-20-9-5-1-10-1-13-1-14 0-22 5-26 14-1 6-1 12-2 18-1 7-4 13-8 16-3 0-6 1-8 2-6 3-10 7-12 12 22 4 42 6 61 5 6-3 9-10 9-23 1-12 3-17 7-17 3 0 6 2 12 5 15 19 31 29 46 29 3 0 6 0 9 0 3-3 6-12 8-25 2-11 7-17 16-20 5-1 9-1 14-1 18 0 36 4 54 12l4-12zm-305 52c-3 8-12 11-27 11-8-3-16-9-24-17-7-15-10-25-10-29 0-3 0-5 1-8 2-8 8-12 17-12 2 0 3 0 5 0 6 3 11 7 14 14 2 6 5 12 7 18 1 3 4 6 9 10 5 4 8 7 8 12zm110-61c0-5-2-8-5-9-17-4-33-7-50-7-25 0-45 5-61 16-20-8-38-11-54-11-14 0-26 3-37 9-4 2-6 8-6 18 0 12 3 24 10 35 9 14 21 24 38 30 15 6 30 9 44 9 13 0 25-2 36-7l7-12c0-3 0-6 0-9 0-3 0-7 0-13 0-6 0-10 0-13 0-16 6-26 19-31 7-1 14-2 20-2 9 0 20 1 33 4 3 1 5-2 5-7l0 0zm-547 115c-1-22-1-37 0-45-1-3-2-8-1-14 0-6 0-11-1-14 1-14 1-36-1-65-11-12-20-18-28-16-3 2-5 6-6 11-1 4-1 9-2 13 1 2 1 4 0 6 0 3 0 5 0 6 1 7 1 16 0 29-1 13-1 23 0 29-1 13-1 23-1 28 0 3-1 8-1 14 0 7-1 12-1 15 0 8 1 15 4 21 0 13 6 22 18 29 3 2 6 3 9 3 4 0 7-2 9-5 1-11 2-26 1-45l0 0zm318 62c4-10 8-25 12-45 1-16-3-37-10-63-10-17-17-28-21-34-9-12-18-23-29-31-9-12-31-29-67-51-3 0-6-1-10-4-4-3-6-4-8-5-8-5-26-12-55-22l-8-5c-1 0-10-2-29-5-11-2-21-3-30-2-7-1-16 0-27 3-10 6-15 15-15 26 0 4 0 8 1 14 9 25 28 45 58 58 10 2 19 2 26-2 1-1 2-3 2-5 0-1-1-3-2-4-19-10-31-16-37-20-13-10-18-20-17-30 3-5 10-8 19-9 8 0 16-1 24-1 21 2 46 10 75 24 7 1 15 4 23 9 13 8 20 12 21 12 1 2 5 5 9 8 5 3 8 6 9 8 28 24 46 47 54 71 1 9 3 23 6 40-3 12-6 25-9 37-5 14-11 26-20 34-3 6-9 13-17 21-7 7-13 13-20 20-14 9-30 19-50 28-18 7-35 15-53 23-62 18-124 27-186 27-18 0-36-1-54-2-68-6-122-15-164-28-5-3-15-6-30-11-13-4-22-9-28-14-25-9-44-20-55-32 0-2 0-4 0-7 0-4 0-6 0-6 0-3-1-5-3-7-2-4-6-7-13-7C29 412 23 411 21 409 9 409 2 413 0 421c5 26 32 51 81 75 13 9 32 17 55 25 20 6 39 12 59 19 7 0 17 2 29 5 12 3 21 5 27 5 11 2 28 4 50 6 22 2 38 4 48 6 5-1 10-1 16-1 5 0 11 0 21 1 9 0 16 1 21 1 27 0 59-3 97-9 36-6 68-14 95-23 1-2 3-3 8-3 5-1 9-1 9-1 60-28 100-55 120-79 13-11 22-24 29-40l0 0z"
     id="path52" /></clipPath>
    </defs>
    <g
   id="g10"
   transform="matrix(1.25,0,0,-1.25,0,93.5625)">
        <g
   id="g12"
   transform="scale(0.1,0.1)">
            <g
   id="g14">
                <g
   id="g16"
   clip-path="url(#clipPath18)">
                    <g
   id="g22"
   clip-path="url(#clipPath24)">
                        <g
   id="g28"
   clip-path="url(#clipPath30)">
                            <g
   id="g34"
   transform="matrix(3601.2,0,0,1026.2,-132.1,-148.1)"><image
     width="1"
     height="1"
     preserveAspectRatio="none"
     transform="matrix(1,0,0,-1,0,1)"
     id="image36" /></g>
                        </g>
                    </g>
                </g>
            </g><path
   d="m3314 240c0-2 0-4-1-6-1-3-5-8-13-15-9-4-19-3-32 1-9 7-13 18-13 33 0 6 1 16 3 29-1 4-3 6-7 6-14-4-26-6-33-6-5 0-7 1-6 3 0 1-2 5-6 12-2 5-3 9-3 12 0 3 0 5 1 7 3 10 6 16 7 19 3 9 7 14 9 16 2 1 5 1 9 1 4-3 6-10 6-21 0-10 3-15 9-15 2 0 5 0 8 1 6 4 12 6 17 6 3 0 7-1 9-3 4-3 6-7 6-13 0-2 0-5-1-9 0-4-1-7-1-8-1-11-2-18-2-21 0-11 3-18 9-23 2-2 4-3 8-3 1 0 3 0 5 0 2 0 4 0 5 0 4 0 6-2 6-5l0 0zm-150 258c8 24 12 46 13 66 1 17-3 36-11 57-3 7-9 10-20 10-4 0-8 0-13-1-26-12-45-34-55-66-7-12-16-39-29-81-3-22-6-44-9-67-3-26-5-49-5-69 0-6 0-12 0-19-1-2-1-4 1-6 1-2 3-3 5-3 17 14 34 33 53 56 15 20 31 40 46 60 14 34 22 55 24 61l0 0zm25-265c-23-9-44-14-62-14-20 0-38 5-55 16-5 1-11-1-18-5-9-5-16-8-20-9-4-1-8-1-14-1-10 1-17 5-20 13-1 5-1 11-2 16-1 7-4 11-7 14-1 0-1 0-2 0-1 0-1 0-2 0-1 0 0 3 3 8 4 9 7 18 9 29 3 16 5 34 5 55 0 11 0 23-1 35 2 19 4 38 6 57 3 22 8 40 13 54 0 8 2 17 7 27 7 14 11 22 12 25 15 41 38 70 70 89 12 3 23 4 34 4 16 0 29-3 39-9 16-19 24-42 24-69 0-32-13-73-38-124-25-51-69-100-131-145-1-2-2-19-2-51 1-2 3-3 5-3 3 0 6 1 11 4 13 17 27 26 41 26 3 0 6 0 8-1 3-3 5-10 8-22 2-10 6-16 14-18 4 0 8 0 12 0 16 0 32 4 49 11l3-11zm-675 40c10 0 19 0 29 1-15 4-28 6-38 6-5 0-10 0-15-1l-2 0c4-3 12-5 24-6l1 0 0 0zm-85 48c0-26 4-56 13-91 1-5-3-12-12-19-6-5-10-7-14-7-2 0-4 1-4 4-9 34-13 65-13 92 0 15 1 30 4 44 1 3 4 8 10 13 6 5 11 8 14 9 2 0 3 0 4-1 1-1 1-2 1-4-2-13-3-26-3-40l0 0zm504 80c0-20-11-40-32-60-11-10-25-20-42-29-28-15-65-27-110-38-28-6-57-12-87-16 25-14 50-31 77-51 63-48 109-96 137-145 1-1 1-2 1-3 0-5-4-11-11-16-5-4-10-6-15-6-2 0-4 1-4 2-28 47-71 93-129 138-42 32-81 57-118 74-24-2-49-4-74-5-23-1-33-2-30-2-28 0-41 7-41 20 0 9 7 18 20 26 10 7 20 11 30 14 7 1 13 2 20 2 14 0 30-3 48-9 16-5 33-12 50-20 75 7 139 19 190 35 30 10 53 20 68 31 4 3 7 5 9 8 7 9 11 19 11 31 0 12-4 24-11 36-25 40-64 70-116 90-44 16-94 24-151 24-19 0-37-1-56-3-78-7-150-27-216-58-46-22-79-42-99-62-18-17-27-32-27-44 0-7 3-12 8-17 1-1 1-2 1-3 0-5-3-9-9-15-6-5-12-8-16-8-2 0-4 0-5 1-7 6-11 14-11 23 0 16 11 36 32 59 29 30 69 58 122 84 98 47 195 70 292 70 44 0 85-5 124-16 62-16 109-45 142-85 18-22 26-42 26-61l0 0zM2371 237c-26-10-49-15-69-15-22 0-42 6-60 17-6 1-13-1-21-6-9-6-15-9-20-9-5-1-10-1-13-1-14 0-22 5-26 14-1 6-1 12-2 18-1 7-4 13-8 16-3 0-6 1-8 2-6 3-10 7-11 12 22 4 42 6 61 5 6-3 9-10 9-23 1-12 3-17 7-17 3 0 6 2 11 5 15 19 31 29 46 29 3 0 6 0 9 0 3-3 6-12 8-25 2-11 7-17 16-20 5-1 9-1 14-1 18 0 36 4 54 12l4-12zm0 503c0-4-2-9-6-14-55-79-130-164-223-257-88-87-172-160-253-220-84-62-142-94-175-94-3 0-7 0-9 1-5 1-8 6-11 14-1 7-3 13-4 20-15 57-23 121-23 192 0 47 4 91 13 132 2 8 10 15 26 22 2 1 4 1 6 1 2 0 4-1 5-2 2-1 2-3 2-6-11-52-16-103-16-153 0-59 8-117 23-175 2-7 7-10 16-10 24 0 67 23 128 68 65 48 136 111 213 190 88 89 171 185 251 290 5 7 14 10 26 10 8 0 12-3 12-9l0 0zm-830-359c46 84 69 162 71 234-1 6-2 12-3 18-1 6-4 11-9 14-6 1-10 2-12 1-29-23-51-59-65-108-21-55-32-122-32-202 3-7 6-10 9-9 7 6 20 23 40 51l0 0zm89 271c9-10 13-27 12-50-3-47-18-100-44-159-25-56-56-104-94-144 5-30 23-54 52-70 8-5 19-7 33-7 9 0 19 1 31 3 3 1 5-2 5-7 0-4-2-7-5-8-15-3-27-5-38-5-8 0-16 1-24 3-2 3-6 4-12 5-6 1-9 2-11 3-11 4-21 10-31 20-10 10-17 20-23 31-14 42-21 75-21 98 0 4 0 7 0 9-2 4-3 8-3 12 0 3 1 7 3 14 2 6 3 11 3 15 0 2 0 4 0 6 14 113 52 192 115 239 6 3 13 5 20 5 12 0 23-4 34-12l0 0zM1355 261c7 11 10 22 9 35-1 5-3 7-7 7-3 0-7-4-11-12-1-17 0-28 3-33 1 0 3 1 6 3l0 0zm135-22c7 0 12-2 14-5-1-5-3-9-9-11-5-2-10-4-15-6-32-7-58-11-76-11-11 0-22 1-32 3-17 4-31 10-43 19-14 11-21 22-21 35 0 5 1 10 3 15 2 5 5 11 10 17 4 5 8 11 12 16 6 2 12 4 18 6 6 2 12 3 16 3 5 0 10-1 15-4 8-7 12-16 12-26 0-14-9-31-28-50 4-8 14-14 30-17 8-2 16-3 24-3 23 0 46 7 69 20l0 0zm-130-5c-5-3-11-5-16-8-6-3-12-4-16-4-21-3-40-4-56-4-46 0-82 10-109 31-3 5-6 10-9 15-3 6-4 12-4 17 0 3 1 7 2 10 1 6 5 15 14 28 4 0 10 2 17 7 7 5 13 7 16 7 3 0 6-1 9-3-10-15-14-27-14-35 0-13 5-25 15-36 10-11 22-18 35-20 12-4 24-6 37-6 22 0 47 5 75 16l3-14zm-172 3c-26-10-49-15-69-15-22 0-42 6-60 17-6 1-13-1-21-6-9-6-15-9-20-9-5-1-10-1-13-1-14 0-22 5-26 14-1 6-1 12-2 18-1 7-4 13-8 16-3 0-6 1-8 2-6 3-10 7-12 12 22 4 42 6 61 5 6-3 9-10 9-23 1-12 3-17 7-17 3 0 6 2 12 5 15 19 31 29 46 29 3 0 6 0 9 0 3-3 6-12 8-25 2-11 7-17 16-20 5-1 9-1 14-1 18 0 36 4 54 12l4-12zm-305 52c-3 8-12 11-27 11-8-3-16-9-24-17-7-15-10-25-10-29 0-3 0-5 1-8 2-8 8-12 17-12 2 0 3 0 5 0 6 3 11 7 14 14 2 6 5 12 7 18 1 3 4 6 9 10 5 4 8 7 8 12zm110-61c0-5-2-8-5-9-17-4-33-7-50-7-25 0-45 5-61 16-20-8-38-11-54-11-14 0-26 3-37 9-4 2-6 8-6 18 0 12 3 24 10 35 9 14 21 24 38 30 15 6 30 9 44 9 13 0 25-2 36-7l7-12c0-3 0-6 0-9 0-3 0-7 0-13 0-6 0-10 0-13 0-16 6-26 19-31 7-1 14-2 20-2 9 0 20 1 33 4 3 1 5-2 5-7l0 0zm-547 115c-1-22-1-37 0-45-1-3-2-8-1-14 0-6 0-11-1-14 1-14 1-36-1-65-11-12-20-18-28-16-3 2-5 6-6 11-1 4-1 9-2 13 1 2 1 4 0 6 0 3 0 5 0 6 1 7 1 16 0 29-1 13-1 23 0 29-1 13-1 23-1 28 0 3-1 8-1 14 0 7-1 12-1 15 0 8 1 15 4 21 0 13 6 22 18 29 3 2 6 3 9 3 4 0 7-2 9-5 1-11 2-26 1-45l0 0zm318 62c4-10 8-25 12-45 1-16-3-37-10-63-10-17-17-28-21-34-9-12-18-23-29-31-9-12-31-29-67-51-3 0-6-1-10-4-4-3-6-4-8-5-8-5-26-12-55-22l-8-5c-1 0-10-2-29-5-11-2-21-3-30-2-7-1-16 0-27 3-10 6-15 15-15 26 0 4 0 8 1 14 9 25 28 45 58 58 10 2 19 2 26-2 1-1 2-3 2-5 0-1-1-3-2-4-19-10-31-16-37-20-13-10-18-20-17-30 3-5 10-8 19-9 8 0 16-1 24-1 21 2 46 10 75 24 7 1 15 4 23 9 13 8 20 12 21 12 1 2 5 5 9 8 5 3 8 6 9 8 28 24 46 47 54 71 1 9 3 23 6 40-3 12-6 25-9 37-5 14-11 26-20 34-3 6-9 13-17 21-7 7-13 13-20 20-14 9-30 19-50 28-18 7-35 15-53 23-62 18-124 27-186 27-18 0-36-1-54-2-68-6-122-15-164-28-5-3-15-6-30-11-13-4-22-9-28-14-25-9-44-20-55-32 0-2 0-4 0-7 0-4 0-6 0-6 0-3-1-5-3-7-2-4-6-7-13-7C29 412 23 411 21 409 9 409 2 413 0 421c5 26 32 51 81 75 13 9 32 17 55 25 20 6 39 12 59 19 7 0 17 2 29 5 12 3 21 5 27 5 11 2 28 4 50 6 22 2 38 4 48 6 5-1 10-1 16-1 5 0 11 0 21 1 9 0 16 1 21 1 27 0 59-3 97-9 36-6 68-14 95-23 1-2 3-3 8-3 5-1 9-1 9-1 60-28 100-55 120-79 13-11 22-24 29-40l0 0"
   id="path38" />
            <g
   style="fill:#333333"
   id="g40">
                <g
   style="fill:#333333"
   id="g42"
   clip-path="url(#clipPath44)">
                    <g
   style="fill:#333333"
   id="g48"
   clip-path="url(#clipPath50)"><path
     style="fill:#333333"
     fill="white"
     d="m0 0 3468 0 0 877L0 877 0 0Z"
     id="path54" /></g>
                </g>
            </g><path
   style="fill:#333333"
   fill="white"
   d="m2024 278c-8 1-18-2-27-9-4-5-6-12-5-22 3-8 8-13 17-15 2 1 5 3 8 7 3 4 5 7 7 8 11 6 17 12 17 18-3 7-9 11-17 13l0 0zm153-6c-24 3-46 3-66-2-7-2-14-4-20-6-6-2-11-8-14-17-3-9-7-15-12-17-7-3-14-5-21-7-22-6-42-5-60 3-17 7-27 16-30 28-2 7 0 14 5 21 6 8 15 13 26 16 20 5 48 2 84-10 18 2 35 4 53 6 21 2 38 2 52 0l3-13M2862 278 2862 278 2862 278c-8 1-18-2-27-9-4-5-6-12-5-22 3-8 8-13 17-15 2 1 5 3 8 7 3 4 5 7 7 8 11 6 17 12 17 18-3 7-9 11-17 13l0 0zm153-6c-24 3-46 3-66-2-7-2-14-4-20-6-6-2-11-8-14-17-3-9-7-15-12-17-7-3-14-5-21-7-22-6-42-5-60 3-17 7-27 16-30 28-2 7 0 14 5 21 6 8 15 13 26 16 20 5 48 2 84-10 18 2 35 4 53 6 21 2 38 2 52 0l3-13"
   id="path56" /><path
   style="fill:#333333"
   fill="white"
   d="m3226 283c0 0-6-59-94-63l2 12c0 0 61 4 74 58 0 0-36 26-11 60 26 34 42-1 38-25-4-24-8-42-8-42"
   id="path60" /><path
   d="m1266 496c3-3 4-7 3-10-9-6-21-9-34-9-6 0-12 1-17 2-4 5-6 10-6 16 0 5 2 12 5 20 11 18 23 26 36 24 2-3 4-9 5-16 1-9 2-14 3-17 1-1 3-5 6-9l0 0"
   id="path62"
   fill="#333333" /></g>
    </g>
</svg>
